<?xml version="1.0" encoding="utf-8"?>
<!-- Generator: Adobe Illustrator 19.0.0, SVG Export Plug-In . SVG Version: 6.00 Build 0)  -->
<svg version="1.1" id="Layer_1" xmlns="http://www.w3.org/2000/svg" xmlns:xlink="http://www.w3.org/1999/xlink" x="0px" y="0px"
	 viewBox="0 0 562.7 701" style="enable-background:new 0 0 562.7 701;" xml:space="preserve">
<style type="text/css">
	.st0{fill:#D4EE5E;}
	.st1{fill:#ACBA24;}
	.st2{fill:#C6234E;}
	.st3{fill:#F24972;}
	.st4{fill:#AA224C;}
	.st5{fill:#152744;}
	.st6{fill:#324868;}
	.st7{fill:#FFFFFF;}
	.st8{fill:#D1CDD0;}
	.st9{fill:#527393;}
</style>
<g id="spaceship">
	<g id="XMLID_60_">
		<path id="XMLID_20_" class="st0" d="M554,601.2L554,601.2c6.4-9.6,18.3-42.3-62.4-42.3s-68.7,32.7-62.4,42.3l0,0
			C477.6,674,505.6,674,554,601.2z"/>
		<ellipse id="XMLID_18_" class="st1" cx="491.6" cy="586.4" rx="46.5" ry="28.4"/>
		<path id="XMLID_10_" class="st2" d="M490.5,606.1L490.5,606.1c-25.5,0-46.4-20.9-46.4-46.4v-103c0-25.5,20.9-46.4,46.4-46.4h0
			c25.5,0,46.4,20.9,46.4,46.4v103C536.9,585.3,516,606.1,490.5,606.1z"/>
		<path id="XMLID_39_" class="st3" d="M516.7,562.9L516.7,562.9c-4.1,0-7.5-3.4-7.5-7.5v-51c0-4.1,3.4-7.5,7.5-7.5l0,0
			c4.1,0,7.5,3.4,7.5,7.5v51C524.2,559.5,520.8,562.9,516.7,562.9z"/>
	</g>
	<g id="XMLID_55_">
		<path id="XMLID_34_" class="st0" d="M133.4,601.2L133.4,601.2c6.4-9.6,18.3-42.3-62.4-42.3S2.3,591.6,8.7,601.2h0
			C57,674,85,674,133.4,601.2z"/>
		<ellipse id="XMLID_31_" class="st1" cx="71" cy="586.4" rx="46.5" ry="28.4"/>
		<path id="XMLID_9_" class="st2" d="M69.9,606.1L69.9,606.1c-25.5,0-46.4-20.9-46.4-46.4v-103c0-25.5,20.9-46.4,46.4-46.4h0
			c25.5,0,46.4,20.9,46.4,46.4v103C116.3,585.3,95.4,606.1,69.9,606.1z"/>
		<path id="XMLID_4_" class="st3" d="M42.1,562.9L42.1,562.9c-4.1,0-7.5-3.4-7.5-7.5v-51c0-4.1,3.4-7.5,7.5-7.5h0
			c4.1,0,7.5,3.4,7.5,7.5v51C49.6,559.5,46.2,562.9,42.1,562.9z"/>
	</g>
	<path id="XMLID_21_" class="st3" d="M385.7,615.7c0,42.6-46.8,85.3-104.6,85.3s-104.6-42.8-104.6-85.3c0-42.6,46.8,3.6,104.6,3.6
		S385.7,573.1,385.7,615.7z"/>
	<path id="XMLID_57_" class="st4" d="M385.5,621c-0.4,4.6-1.3,9.1-2.7,13.5c-24.3,19.6-60.8,31.2-101.6,31.2s-77.3-11.6-101.6-31.2
		c-1.4-4.5-2.3-9-2.7-13.5c32.9,19,74.8,24.1,104.3,24.1C310.7,645.1,352.5,640,385.5,621z"/>
	<path id="XMLID_56_" class="st4" d="M385.5,621c-0.4,4.6-1.3,9.1-2.7,13.5c-24.3,19.6-60.8,31.2-101.6,31.2s-77.3-11.6-101.6-31.2
		c-1.4-4.5-2.3-9-2.7-13.5c32.9,19,74.8,24.1,104.3,24.1C310.7,645.1,352.5,640,385.5,621z"/>
	<path id="XMLID_30_" class="st5" d="M478.6,417.5c-30-52.4-106.1-88.8-197.5-88.8c-91.5,0-167.6,36.4-197.6,88.8
		c-18.8,2-33.7,24.2-33.7,51.3c0,28.5,16.3,51.5,36.3,51.5c12.2,0,23-8.6,29.6-21.6c12.4-4.9,21.2-17,21.2-31.2
		c0-41,76.1-71.7,144.1-71.7c68,0,144.1,30.6,144.1,71.7c0,14.5,9.2,26.8,22.1,31.5c6.6,12.9,17.3,21.3,29.4,21.3
		c20.1,0,36.3-23.1,36.3-51.5C513,441.4,497.7,419,478.6,417.5z"/>
	<path id="XMLID_51_" class="st2" d="M455.4,246.5L436.8,531c0,95.8-99.9,114.1-155.7,114.1c-55.8,0-155.7-18.2-155.7-114.1
		l-18.5-284.5c0-22.1,6.8-47.1,17.8-72.5c3.4-8,7.3-16,11.5-24C176.9,73.2,248.8,0,281.1,0c32,0,102.9,75.1,143.7,150.9
		c4.3,8,8.3,16,11.8,23.9C448.2,200.6,455.4,225.5,455.4,246.5z"/>
	<path id="XMLID_47_" class="st6" d="M475.6,430.6c-20.3,0-36.8,16.5-36.8,36.8c0,44.9-83.3,78.5-157.7,78.5
		c-74.5,0-157.7-33.6-157.7-78.5c0-20.3-16.5-36.8-36.8-36.8c-20.3,0-36.8,16.5-36.8,36.8c0,85.2,101.6,152,231.3,152
		c129.7,0,231.3-66.8,231.3-152C512.4,447,495.9,430.6,475.6,430.6z"/>
	<path id="XMLID_6_" class="st6" d="M500.3,509.1c-29.6,0-54.5-20.7-60.8-48.4c-0.4,2.2-0.6,4.4-0.6,6.6c0,6.7-1.8,13.1-5.2,19.2
		c10.1,21,31.5,35.5,56.3,35.5c2.7,0,5.3-0.2,7.9-0.5c2.3-4.1,4.4-8.3,6.1-12.6C502.7,509,501.5,509.1,500.3,509.1z"/>
	<path id="XMLID_7_" class="st6" d="M123.3,467.4c0-1.8-0.1-3.6-0.4-5.3c-6.9,27-31.3,47-60.5,47c-1.4,0-2.8-0.1-4.2-0.1
		c1.8,4.3,3.8,8.5,6.2,12.6c2.5,0.3,5,0.5,7.6,0.5c24.9,0,46.5-14.6,56.5-35.8C125.1,480.3,123.3,473.9,123.3,467.4z"/>
	<path id="XMLID_46_" class="st7" d="M436.7,174.9c-40.6,26-95.4,41.8-155.1,41.8c-60.4,0-115.6-16.1-156.8-42.6
		c3.4-8,7.3-16,11.5-24c40.8,20.7,91.2,32.8,145.3,32.8c53.4,0,103.2-11.8,143.3-32C429.2,158.9,433.1,166.9,436.7,174.9z"/>
	<g id="XMLID_38_">
		<circle id="XMLID_45_" class="st4" cx="281.1" cy="361.8" r="119.2"/>
		<circle id="XMLID_44_" class="st7" cx="281.1" cy="361.8" r="105.1"/>
		<circle id="XMLID_43_" class="st8" cx="281.1" cy="361.8" r="90.4"/>
		<circle id="XMLID_40_" cx="281.1" cy="361.8" r="80.2"/>
	</g>
	<ellipse id="XMLID_37_" class="st8" cx="281.5" cy="315.5" rx="37" ry="11.6"/>
	<circle id="XMLID_2_" class="st6" cx="500.3" cy="446.6" r="62.4"/>
	<path id="XMLID_22_" class="st5" d="M503.9,509c-1.8,4.3-3.8,8.5-6.1,12.6c-2.6,0.3-5.2,0.5-7.9,0.5c-24.8,0-46.3-14.5-56.3-35.5
		c3.4-6.1,5.2-12.5,5.2-19.2c0-2.3,0.2-4.5,0.6-6.6c6.4,27.7,31.2,48.4,60.8,48.4C501.5,509.1,502.7,509,503.9,509z"/>
	<circle id="XMLID_5_" class="st6" cx="62.4" cy="446.6" r="62.4"/>
	<circle id="XMLID_53_" class="st5" cx="281.1" cy="589.1" r="20.7"/>
	<circle id="XMLID_35_" class="st7" cx="281.1" cy="582.3" r="20.7"/>
	<circle id="XMLID_52_" class="st5" cx="163.9" cy="559.3" r="20.7"/>
	<circle id="XMLID_48_" class="st7" cx="159.3" cy="554.7" r="20.7"/>
	<circle id="XMLID_54_" class="st5" cx="400.6" cy="559.3" r="20.7"/>
	<circle id="XMLID_49_" class="st7" cx="405.2" cy="554.7" r="20.7"/>
	<ellipse id="XMLID_41_" class="st8" cx="156" cy="568" rx="8.3" ry="3"/>
	<ellipse id="XMLID_58_" class="st8" cx="280.1" cy="595.6" rx="8.3" ry="3"/>
	<ellipse id="XMLID_59_" class="st8" cx="406.5" cy="568" rx="8.3" ry="3"/>
	<path id="XMLID_16_" class="st5" d="M128.4,486.3c-10,21.1-31.5,35.8-56.5,35.8c-2.6,0-5.1-0.2-7.6-0.5c-2.3-4.1-4.4-8.3-6.2-12.6
		c1.4,0.1,2.8,0.1,4.2,0.1c29.2,0,53.6-20,60.5-47c0.3,1.7,0.4,3.5,0.4,5.3C123.3,473.9,125.1,480.3,128.4,486.3z"/>
	<ellipse id="XMLID_3_" class="st9" cx="61.2" cy="401.4" rx="22.7" ry="9.4"/>
	<ellipse id="XMLID_8_" class="st9" cx="499.2" cy="402.7" rx="22.7" ry="9.4"/>
</g>
</svg>
